<svg width="16" height="17" viewBox="0 0 16 17" fill="none" xmlns="http://www.w3.org/2000/svg">
<path d="M5.16683 2.16663C5.16683 1.89048 4.94297 1.66663 4.66683 1.66663C4.39069 1.66663 4.16683 1.89048 4.16683 2.16663V3.21946C3.20728 3.2963 2.57734 3.48488 2.11454 3.94767C1.65175 4.41047 1.46317 5.04041 1.38633 5.99996H14.614C14.5372 5.04041 14.3486 4.41047 13.8858 3.94767C13.423 3.48488 12.793 3.2963 11.8335 3.21946V2.16663C11.8335 1.89048 11.6096 1.66663 11.3335 1.66663C11.0574 1.66663 10.8335 1.89048 10.8335 2.16663V3.17523C10.39 3.16663 9.89285 3.16663 9.3335 3.16663H6.66683C6.10747 3.16663 5.61034 3.16663 5.16683 3.17523V2.16663Z" fill="white"/>
<path fill-rule="evenodd" clip-rule="evenodd" d="M1.3335 8.49996C1.3335 7.9406 1.3335 7.44347 1.3421 6.99996H14.6582C14.6668 7.44347 14.6668 7.9406 14.6668 8.49996V9.83329C14.6668 12.3475 14.6668 13.6045 13.8858 14.3856C13.1047 15.1666 11.8477 15.1666 9.3335 15.1666H6.66683C4.15267 15.1666 2.89559 15.1666 2.11454 14.3856C1.3335 13.6045 1.3335 12.3475 1.3335 9.83329V8.49996ZM11.3335 9.83329C11.7017 9.83329 12.0002 9.53482 12.0002 9.16663C12.0002 8.79844 11.7017 8.49996 11.3335 8.49996C10.9653 8.49996 10.6668 8.79844 10.6668 9.16663C10.6668 9.53482 10.9653 9.83329 11.3335 9.83329ZM11.3335 12.5C11.7017 12.5 12.0002 12.2015 12.0002 11.8333C12.0002 11.4651 11.7017 11.1666 11.3335 11.1666C10.9653 11.1666 10.6668 11.4651 10.6668 11.8333C10.6668 12.2015 10.9653 12.5 11.3335 12.5ZM8.66683 9.16663C8.66683 9.53482 8.36835 9.83329 8.00016 9.83329C7.63197 9.83329 7.3335 9.53482 7.3335 9.16663C7.3335 8.79844 7.63197 8.49996 8.00016 8.49996C8.36835 8.49996 8.66683 8.79844 8.66683 9.16663ZM8.66683 11.8333C8.66683 12.2015 8.36835 12.5 8.00016 12.5C7.63197 12.5 7.3335 12.2015 7.3335 11.8333C7.3335 11.4651 7.63197 11.1666 8.00016 11.1666C8.36835 11.1666 8.66683 11.4651 8.66683 11.8333ZM4.66683 9.83329C5.03502 9.83329 5.3335 9.53482 5.3335 9.16663C5.3335 8.79844 5.03502 8.49996 4.66683 8.49996C4.29864 8.49996 4.00016 8.79844 4.00016 9.16663C4.00016 9.53482 4.29864 9.83329 4.66683 9.83329ZM4.66683 12.5C5.03502 12.5 5.3335 12.2015 5.3335 11.8333C5.3335 11.4651 5.03502 11.1666 4.66683 11.1666C4.29864 11.1666 4.00016 11.4651 4.00016 11.8333C4.00016 12.2015 4.29864 12.5 4.66683 12.5Z" fill="white"/>
</svg>
