<svg width="24" height="25" viewBox="0 0 24 25" fill="none" xmlns="http://www.w3.org/2000/svg">
<path d="M2 12.5C2 7.78595 2 5.42893 3.46447 3.96447C4.92893 2.5 7.28595 2.5 12 2.5C16.714 2.5 19.0711 2.5 20.5355 3.96447C22 5.42893 22 7.78595 22 12.5C22 17.214 22 19.5711 20.5355 21.0355C19.0711 22.5 16.714 22.5 12 22.5C7.28595 22.5 4.92893 22.5 3.46447 21.0355C2 19.5711 2 17.214 2 12.5Z" fill="#94A3B8"/>
<path fill-rule="evenodd" clip-rule="evenodd" d="M12 7.75C12.4142 7.75 12.75 8.08579 12.75 8.5V12.1893L15.0303 14.4697C15.3232 14.7626 15.3232 15.2374 15.0303 15.5303C14.7374 15.8232 14.2626 15.8232 13.9697 15.5303L11.4697 13.0303C11.329 12.8897 11.25 12.6989 11.25 12.5V8.5C11.25 8.08579 11.5858 7.75 12 7.75Z" fill="white"/>
</svg>
