<svg width="70" height="49" viewBox="0 0 70 49" fill="none" xmlns="http://www.w3.org/2000/svg">
<path d="M0.5 8C0.5 3.85786 3.85786 0.5 8 0.5H69.5V48.5H8C3.85786 48.5 0.5 45.1421 0.5 41V8Z" fill="#F4F4F5"/>
<path d="M0.5 8C0.5 3.85786 3.85786 0.5 8 0.5H69.5V48.5H8C3.85786 48.5 0.5 45.1421 0.5 41V8Z" stroke="#D1D5DB"/>
<path d="M15.724 31V28.018H12.742V26.968H15.724V24H16.774V26.968H19.742V28.018H16.774V31H15.724ZM24.6902 31.168C22.7302 31.168 21.3302 29.74 21.3302 27.724C21.3302 26.604 21.7362 25.54 22.5342 24.476L25.4742 20.57H26.8182L23.5422 24.854C23.9062 24.63 24.3262 24.546 24.8302 24.546C26.6502 24.546 28.0502 25.918 28.0502 27.864C28.0502 29.754 26.6082 31.168 24.6902 31.168ZM24.6902 30.188C25.9782 30.188 26.9302 29.194 26.9302 27.864C26.9302 26.534 25.9922 25.554 24.6902 25.554C23.3882 25.554 22.4502 26.534 22.4502 27.864C22.4502 29.194 23.4022 30.188 24.6902 30.188ZM29.6558 31V30.3L32.5678 27.094C34.2618 25.232 35.0318 24.504 35.0318 23.328C35.0318 22.082 34.2478 21.382 33.0298 21.382C31.7838 21.382 30.8878 22.124 30.5938 23.398L29.5718 23.174C29.9358 21.48 31.2518 20.402 33.0158 20.402C34.8778 20.402 36.1518 21.62 36.1518 23.328C36.1518 24.504 35.4378 25.428 33.9118 27.108L31.2658 30.02H36.4318V31H29.6558Z" fill="#9CA3AF"/>
<path d="M50.2471 27.0568L54.5336 22.6365C54.801 22.3607 54.6389 21.8334 54.2866 21.8334H45.7137C45.3614 21.8334 45.1993 22.3607 45.4668 22.6365L49.7532 27.0568C49.8953 27.2033 50.105 27.2033 50.2471 27.0568Z" fill="#9CA3AF"/>
</svg>
