<svg width="24" height="25" viewBox="0 0 24 25" fill="none" xmlns="http://www.w3.org/2000/svg">
<path fill-rule="evenodd" clip-rule="evenodd" d="M1.60603 6.58087C2.11366 6.36331 2.70154 6.59846 2.9191 7.10609L1.99995 7.50001C2.9191 7.10609 2.91924 7.10642 2.9191 7.10609L2.91858 7.10489C2.9183 7.10424 2.91851 7.10472 2.91858 7.10489L2.9225 7.11376C2.92651 7.12277 2.93339 7.13809 2.94319 7.15929C2.96278 7.20171 2.99397 7.26759 3.03696 7.35358C3.12302 7.5257 3.25594 7.77747 3.43737 8.08228C3.80137 8.6938 4.35439 9.50825 5.10775 10.3196C5.28532 10.5108 5.47324 10.7011 5.67173 10.8881C5.68003 10.8956 5.68823 10.9033 5.69633 10.9112C7.18102 12.3014 9.25227 13.5 12 13.5C13.2089 13.5 14.2783 13.2692 15.2209 12.8982C16.4469 12.4156 17.4745 11.6891 18.3156 10.8997C19.2652 10.0084 19.9627 9.05005 20.4232 8.31101C20.6526 7.94292 20.8207 7.63319 20.9299 7.4191C20.9844 7.31217 21.0241 7.22944 21.0491 7.17562C21.0617 7.14872 21.0706 7.12908 21.0758 7.11729L21.0808 7.10609C21.2985 6.59874 21.8864 6.36337 22.3939 6.58087C22.9015 6.79842 23.1367 7.3863 22.9191 7.89393L22 7.50001C22.9191 7.89393 22.9192 7.8937 22.9191 7.89393L22.9169 7.89895L22.9134 7.90718L22.9019 7.93302C22.8924 7.95435 22.879 7.98378 22.8618 8.02072C22.8274 8.09458 22.7774 8.19856 22.7115 8.32775C22.5799 8.58591 22.384 8.94609 22.1206 9.36869C21.718 10.0148 21.152 10.8162 20.4096 11.6243L21.2071 12.4217C21.5976 12.8123 21.5976 13.4454 21.2071 13.836C20.8165 14.2265 20.1834 14.2265 19.7928 13.836L18.9527 12.9958C18.3884 13.4515 17.757 13.8814 17.0558 14.2522L17.8381 15.4546C18.1393 15.9175 18.0083 16.537 17.5453 16.8382C17.0824 17.1394 16.463 17.0083 16.1618 16.5454L15.1763 15.0309C14.4973 15.239 13.772 15.3865 13 15.4557V17C13 17.5523 12.5522 18 12 18C11.4477 18 11 17.5523 11 17V15.4558C10.2253 15.3866 9.50014 15.2388 8.82334 15.0313L7.83814 16.5454C7.53693 17.0083 6.91748 17.1394 6.45457 16.8382C5.99165 16.537 5.86056 15.9175 6.16177 15.4546L6.94417 14.2522C6.24405 13.8816 5.61245 13.4518 5.04746 12.9956L4.20706 13.836C3.81654 14.2265 3.18337 14.2265 2.79285 13.836C2.40232 13.4454 2.40232 12.8123 2.79285 12.4217L3.59029 11.6243C2.74529 10.7045 2.12772 9.79225 1.71879 9.10525C1.5096 8.75381 1.35345 8.4587 1.2481 8.24801C1.19539 8.14259 1.15529 8.05808 1.12752 7.99796C1.11363 7.96789 1.10282 7.9439 1.09505 7.92643L1.08566 7.90514L1.08267 7.89826L1.0816 7.89577L1.08117 7.89477C1.08098 7.89434 1.08081 7.89393 1.99995 7.50001L1.08117 7.89477C0.863613 7.38714 1.0984 6.79842 1.60603 6.58087Z" fill="#D1D5DB"/>
</svg>
