<svg width="24" height="25" viewBox="0 0 24 25" fill="none" xmlns="http://www.w3.org/2000/svg">
<path fill-rule="evenodd" clip-rule="evenodd" d="M18.9771 15.2904C21.6743 12.5932 21.6743 8.22013 18.9771 5.52291C16.2799 2.8257 11.9068 2.8257 9.20961 5.52291C7.41866 7.31385 6.8169 9.84366 7.40432 12.1311C7.49906 12.5 7.41492 12.899 7.14558 13.1684L3.43349 16.8804C3.11558 17.1984 2.95941 17.6435 3.00906 18.0904L3.24113 20.179C3.26587 20.4017 3.36566 20.6093 3.52408 20.7677L3.73229 20.9759C3.89072 21.1343 4.09834 21.2341 4.32101 21.2589L6.4096 21.4909C6.85645 21.5406 7.30164 21.3844 7.61956 21.0665L8.32958 20.3565L6.58343 18.6294C6.28893 18.3382 6.28632 17.8633 6.5776 17.5688C6.86888 17.2743 7.34375 17.2717 7.63825 17.563L9.39026 19.2958L11.3319 17.3541C11.6013 17.0848 12 17.0009 12.3689 17.0957C14.6563 17.6831 17.1861 17.0813 18.9771 15.2904ZM12.5858 9.08579C13.3668 8.30474 14.6332 8.30474 15.4142 9.08579C16.1953 9.86684 16.1953 11.1332 15.4142 11.9142C14.6332 12.6953 13.3668 12.6953 12.5858 11.9142C11.8047 11.1332 11.8047 9.86684 12.5858 9.08579Z" fill="#0F172A"/>
</svg>
