<svg width="123" height="126" viewBox="0 0 123 126" fill="none" xmlns="http://www.w3.org/2000/svg">
<path d="M22.2605 35.3431C24.4154 26.6788 29.406 18.9845 36.4376 13.4859C43.4694 7.98718 52.138 5 61.063 5C69.988 5 78.6566 7.98718 85.6883 13.4859C92.7201 18.9845 97.7105 26.6788 99.8655 35.3431H96.3605C90.448 35.2561 84.6567 37.0238 79.7998 40.398C79.5194 40.6011 79.2267 40.7867 78.9235 40.9532H78.5146C78.2114 40.7867 77.9188 40.6011 77.6384 40.398C72.7385 37.1018 66.9676 35.3414 61.063 35.3414C55.1584 35.3414 49.3875 37.1018 44.4876 40.398C44.2072 40.6011 43.9145 40.7867 43.6114 40.9532H43.2025C42.8993 40.7867 42.6066 40.6011 42.3262 40.398C37.4693 37.0238 31.678 35.2561 25.7654 35.3431H22.2605ZM90.0517 53.6635C91.8509 52.2619 94.0809 51.5285 96.3605 51.589H101.063V42.2096H96.3605C92.3451 42.1611 88.4216 43.4114 85.174 45.7744C83.3465 47.1222 81.1357 47.8495 78.8651 47.8495C76.5945 47.8495 74.3838 47.1222 72.5562 45.7744C69.2263 43.4555 65.2663 42.2123 61.209 42.2123C57.1518 42.2123 53.1918 43.4555 49.8618 45.7744C48.0343 47.1222 45.8236 47.8495 43.5529 47.8495C41.2823 47.8495 39.0716 47.1222 37.2441 45.7744C33.9565 43.381 29.9766 42.1293 25.9115 42.2096H21.063V51.589H25.7654C28.0451 51.5285 30.2751 52.2619 32.0743 53.6635C35.3981 55.9841 39.3538 57.2282 43.4069 57.2282C47.4601 57.2282 51.4157 55.9841 54.7395 53.6635C56.541 52.2663 58.7693 51.5334 61.0484 51.589C63.3289 51.5235 65.5604 52.2575 67.3573 53.6635C70.6872 55.9826 74.6472 57.2256 78.7045 57.2256C82.7617 57.2256 86.7217 55.9826 90.0517 53.6635ZM90.0517 70.4353C91.8509 69.0336 94.0809 68.3002 96.3605 68.3607H101.063V58.9814H96.3605C92.3451 58.9329 88.4216 60.1832 85.174 62.5461C83.3465 63.894 81.1357 64.6213 78.8651 64.6213C76.5945 64.6213 74.3838 63.894 72.5562 62.5461C69.2263 60.2273 65.2663 58.9843 61.209 58.9843C57.1518 58.9843 53.1918 60.2273 49.8618 62.5461C48.0343 63.894 45.8236 64.6213 43.5529 64.6213C41.2823 64.6213 39.0716 63.894 37.2441 62.5461C33.9565 60.1531 29.9766 58.901 25.9115 58.9814H21.063V68.3607H25.7654C28.0451 68.3002 30.2751 69.0336 32.0743 70.4353C35.3981 72.7559 39.3538 74 43.4069 74C47.4601 74 51.4157 72.7559 54.7395 70.4353C56.541 69.038 58.7693 68.3052 61.0484 68.3607C63.3289 68.2953 65.5604 69.0292 67.3573 70.4353C70.6872 72.7544 74.6472 73.9974 78.7045 73.9974C82.7617 73.9974 86.7217 72.7544 90.0517 70.4353Z" fill="white"/>
<path d="M98.3737 120.788C94.8961 120.788 91.7764 120.14 89.0147 118.844C86.2871 117.549 84.1392 115.742 82.5708 113.423C81.0024 111.105 80.2183 108.394 80.2183 105.292C80.2183 102.257 80.9683 99.5977 82.4685 97.3133C83.9687 95.029 86.0314 93.239 88.6567 91.9434C91.3161 90.6478 94.3164 90 97.6577 90C101.067 90 103.999 90.7501 106.454 92.2503C108.909 93.7504 110.801 95.8643 112.131 98.5919C113.461 101.319 114.126 104.524 114.126 108.207H87.8384V102.223H108.909L105.482 104.371C105.38 102.768 104.988 101.422 104.306 100.331C103.658 99.2056 102.789 98.3532 101.698 97.7736C100.607 97.1599 99.3113 96.853 97.8112 96.853C96.1746 96.853 94.7597 97.1769 93.5664 97.8247C92.373 98.4725 91.4354 99.3761 90.7535 100.535C90.1057 101.695 89.7818 103.041 89.7818 104.576C89.7818 106.519 90.208 108.173 91.0604 109.536C91.9469 110.9 93.2084 111.94 94.8449 112.656C96.5156 113.372 98.5442 113.73 100.931 113.73C103.113 113.73 105.295 113.44 107.477 112.861C109.659 112.247 111.62 111.394 113.358 110.303V116.492C111.381 117.855 109.114 118.912 106.556 119.662C104.033 120.413 101.306 120.788 98.3737 120.788Z" fill="white"/>
<path d="M62.7949 115.52L59.4707 115.469L70.006 90.8183H80.1321L66.3749 119.969H55.5839L41.8267 90.8183H52.3108L62.7949 115.52Z" fill="white"/>
<path d="M26.1555 120.788C22.6778 120.788 19.5581 120.14 16.7965 118.844C14.0689 117.549 11.9209 115.742 10.3525 113.423C8.78418 111.105 8 108.394 8 105.292C8 102.257 8.75008 99.5977 10.2503 97.3133C11.7504 95.029 13.8132 93.239 16.4385 91.9434C19.0978 90.6478 22.0982 90 25.4395 90C28.849 90 31.7811 90.7501 34.2359 92.2503C36.6908 93.7504 38.583 95.8643 39.9127 98.5919C41.2424 101.319 41.9072 104.524 41.9072 108.207H15.6202V102.223H36.6907L33.2642 104.371C33.1619 102.768 32.7698 101.422 32.088 100.331C31.4402 99.2056 30.5707 98.3532 29.4797 97.7736C28.3887 97.1599 27.0931 96.853 25.5929 96.853C23.9564 96.853 22.5414 97.1769 21.3481 97.8247C20.1548 98.4725 19.2172 99.3761 18.5353 100.535C17.8875 101.695 17.5636 103.041 17.5636 104.576C17.5636 106.519 17.9898 108.173 18.8421 109.536C19.7286 110.9 20.9901 111.94 22.6267 112.656C24.2973 113.372 26.3259 113.73 28.7126 113.73C30.8946 113.73 33.0767 113.44 35.2588 112.861C37.4408 112.247 39.4013 111.394 41.1401 110.303V116.492C39.1626 117.855 36.8953 118.912 34.3382 119.662C31.8152 120.413 29.0876 120.788 26.1555 120.788Z" fill="white"/>
</svg>
