<svg width="99" height="38" viewBox="0 0 99 38" fill="none" xmlns="http://www.w3.org/2000/svg">
<path d="M8.46857 17.3741C9.31174 13.9852 11.2645 10.9757 14.0159 8.82499C16.7673 6.67425 20.1592 5.50586 23.6514 5.50586C27.1437 5.50586 30.5355 6.67425 33.287 8.82499C36.0384 10.9757 37.9911 13.9852 38.8343 17.3741H37.4629C35.1494 17.34 32.8833 18.0315 30.9829 19.3512C30.8731 19.4307 30.7586 19.5032 30.64 19.5684H30.48C30.3614 19.5032 30.2469 19.4307 30.1371 19.3512C28.2199 18.062 25.9618 17.3734 23.6514 17.3734C21.341 17.3734 19.083 18.062 17.1657 19.3512C17.056 19.4307 16.9415 19.5032 16.8229 19.5684H16.6629C16.5442 19.5032 16.4297 19.4307 16.32 19.3512C14.4195 18.0315 12.1535 17.34 9.84 17.3741H8.46857ZM34.9943 24.5398C35.6983 23.9916 36.5709 23.7047 37.4629 23.7284H39.3029V20.0598H37.4629C35.8917 20.0408 34.3565 20.5299 33.0857 21.4541C32.3706 21.9813 31.5056 22.2657 30.6171 22.2657C29.7287 22.2657 28.8637 21.9813 28.1486 21.4541C26.8456 20.5471 25.2961 20.0608 23.7086 20.0608C22.121 20.0608 20.5715 20.5471 19.2686 21.4541C18.5535 21.9813 17.6885 22.2657 16.8 22.2657C15.9115 22.2657 15.0465 21.9813 14.3314 21.4541C13.045 20.518 11.4878 20.0284 9.89714 20.0598H8V23.7284H9.84C10.732 23.7047 11.6046 23.9916 12.3086 24.5398C13.6091 25.4475 15.1569 25.9341 16.7429 25.9341C18.3288 25.9341 19.8766 25.4475 21.1771 24.5398C21.8821 23.9933 22.7539 23.7067 23.6457 23.7284C24.5381 23.7028 25.4112 23.9899 26.1143 24.5398C27.4173 25.4469 28.9667 25.9331 30.5543 25.9331C32.1418 25.9331 33.6913 25.4469 34.9943 24.5398ZM34.9943 31.0998C35.6983 30.5516 36.5709 30.2647 37.4629 30.2884H39.3029V26.6198H37.4629C35.8917 26.6008 34.3565 27.0899 33.0857 28.0141C32.3706 28.5413 31.5056 28.8257 30.6171 28.8257C29.7287 28.8257 28.8637 28.5413 28.1486 28.0141C26.8456 27.1071 25.2961 26.6209 23.7086 26.6209C22.121 26.6209 20.5715 27.1071 19.2686 28.0141C18.5535 28.5413 17.6885 28.8257 16.8 28.8257C15.9115 28.8257 15.0465 28.5413 14.3314 28.0141C13.045 27.0781 11.4878 26.5884 9.89714 26.6198H8V30.2884H9.84C10.732 30.2647 11.6046 30.5516 12.3086 31.0998C13.6091 32.0075 15.1569 32.4941 16.7429 32.4941C18.3288 32.4941 19.8766 32.0075 21.1771 31.0998C21.8821 30.5533 22.7539 30.2667 23.6457 30.2884C24.5381 30.2628 25.4112 30.5499 26.1143 31.0998C27.4173 32.0069 28.9667 32.4931 30.5543 32.4931C32.1418 32.4931 33.6913 32.0069 34.9943 31.0998Z" fill="white"/>
<path d="M55.0427 26.82C53.6827 26.82 52.4627 26.5667 51.3827 26.06C50.3161 25.5533 49.4761 24.8467 48.8627 23.94C48.2494 23.0333 47.9427 21.9733 47.9427 20.76C47.9427 19.5733 48.2361 18.5333 48.8227 17.64C49.4094 16.7467 50.2161 16.0467 51.2427 15.54C52.2827 15.0333 53.4561 14.78 54.7627 14.78C56.0961 14.78 57.2427 15.0733 58.2027 15.66C59.1627 16.2467 59.9027 17.0733 60.4227 18.14C60.9427 19.2067 61.2027 20.46 61.2027 21.9H50.9227V19.56H59.1627L57.8227 20.4C57.7827 19.7733 57.6294 19.2467 57.3627 18.82C57.1094 18.38 56.7694 18.0467 56.3427 17.82C55.9161 17.58 55.4094 17.46 54.8227 17.46C54.1827 17.46 53.6294 17.5867 53.1627 17.84C52.6961 18.0933 52.3294 18.4467 52.0627 18.9C51.8094 19.3533 51.6827 19.88 51.6827 20.48C51.6827 21.24 51.8494 21.8867 52.1827 22.42C52.5294 22.9533 53.0227 23.36 53.6627 23.64C54.3161 23.92 55.1094 24.06 56.0427 24.06C56.8961 24.06 57.7494 23.9467 58.6027 23.72C59.4561 23.48 60.2227 23.1467 60.9027 22.72V25.14C60.1294 25.6733 59.2427 26.0867 58.2427 26.38C57.2561 26.6733 56.1894 26.82 55.0427 26.82ZM69.3713 24.76L68.0713 24.74L72.1913 15.1H76.1513L70.7713 26.5H66.5513L61.1713 15.1H65.2713L69.3713 24.76ZM83.2849 26.82C81.9249 26.82 80.7049 26.5667 79.6249 26.06C78.5583 25.5533 77.7183 24.8467 77.1049 23.94C76.4916 23.0333 76.1849 21.9733 76.1849 20.76C76.1849 19.5733 76.4783 18.5333 77.0649 17.64C77.6516 16.7467 78.4583 16.0467 79.4849 15.54C80.5249 15.0333 81.6983 14.78 83.0049 14.78C84.3383 14.78 85.4849 15.0733 86.4449 15.66C87.4049 16.2467 88.1449 17.0733 88.6649 18.14C89.1849 19.2067 89.4449 20.46 89.4449 21.9H79.1649V19.56H87.4049L86.0649 20.4C86.0249 19.7733 85.8716 19.2467 85.6049 18.82C85.3516 18.38 85.0116 18.0467 84.5849 17.82C84.1583 17.58 83.6516 17.46 83.0649 17.46C82.4249 17.46 81.8716 17.5867 81.4049 17.84C80.9383 18.0933 80.5716 18.4467 80.3049 18.9C80.0516 19.3533 79.9249 19.88 79.9249 20.48C79.9249 21.24 80.0916 21.8867 80.4249 22.42C80.7716 22.9533 81.2649 23.36 81.9049 23.64C82.5583 23.92 83.3516 24.06 84.2849 24.06C85.1383 24.06 85.9916 23.9467 86.8449 23.72C87.6983 23.48 88.4649 23.1467 89.1449 22.72V25.14C88.3716 25.6733 87.4849 26.0867 86.4849 26.38C85.4983 26.6733 84.4316 26.82 83.2849 26.82Z" fill="white"/>
</svg>
