<svg width="17" height="17" viewBox="0 0 17 17" fill="none" xmlns="http://www.w3.org/2000/svg">
<path fill-rule="evenodd" clip-rule="evenodd" d="M8.49984 1.83337C5.55432 1.83337 3.1665 4.50176 3.1665 7.50004C3.1665 10.4748 4.86872 13.7083 7.52455 14.9497C8.14367 15.2391 8.85601 15.2391 9.47513 14.9497C12.131 13.7083 13.8332 10.4748 13.8332 7.50004C13.8332 4.50176 11.4454 1.83337 8.49984 1.83337ZM8.49984 8.50004C9.23622 8.50004 9.83317 7.90309 9.83317 7.16671C9.83317 6.43033 9.23622 5.83337 8.49984 5.83337C7.76346 5.83337 7.1665 6.43033 7.1665 7.16671C7.1665 7.90309 7.76346 8.50004 8.49984 8.50004Z" fill="#94A3B8"/>
</svg>
