<svg width="16" height="17" viewBox="0 0 16 17" fill="none" xmlns="http://www.w3.org/2000/svg">
<path d="M11.2907 9.23386C11.8695 9.03132 12.5891 9.00405 14.093 9.00054H15.1496C15.1446 9.07268 15.1567 8.92898 15.1496 9.00054C15.1265 9.25478 15.0153 9.49295 14.8352 9.67392L9.16377 15.3738C8.98821 15.5503 8.74957 15.6495 8.50066 15.6495C8.4291 15.6566 8.57281 15.6445 8.50066 15.6495V14.5928C8.50418 13.0889 8.53144 12.3694 8.73398 11.7905C9.15278 10.5937 10.0938 9.65266 11.2907 9.23386Z" fill="#94A3B8"/>
<path fill-rule="evenodd" clip-rule="evenodd" d="M7.70117 11.7539C7.51771 12.4625 7.50157 13.3297 7.50026 14.6467V15.6495C3.77545 15.3929 0.833496 12.29 0.833496 8.50004C0.833496 4.542 4.04212 1.33337 8.00016 1.33337C11.7902 1.33337 14.893 4.27532 15.1497 8.00014H14.1469C12.6424 8.00164 11.7248 8.02248 10.9604 8.28998C9.7436 8.71575 8.74005 9.57681 8.13181 10.6911C8.11899 10.6924 8.10612 10.6941 8.09322 10.6964C7.37723 10.8216 6.68248 10.7923 6.06346 10.6371C5.7956 10.57 5.52403 10.7327 5.4569 11.0006C5.38976 11.2684 5.55248 11.54 5.82033 11.6071C6.41097 11.7551 7.04797 11.8077 7.70117 11.7539ZM9.93193 7.98233C10.2876 7.88703 10.46 7.37732 10.3171 6.84386C10.1741 6.31039 9.76994 5.95518 9.4143 6.05048C9.05865 6.14577 8.88622 6.65548 9.02916 7.18895C9.17211 7.72241 9.57629 8.07762 9.93193 7.98233ZM6.06833 9.01765C6.42397 8.92235 6.5964 8.41264 6.45346 7.87918C6.31052 7.34571 5.90633 6.9905 5.55069 7.0858C5.19504 7.18109 5.02262 7.6908 5.16556 8.22427C5.3085 8.75773 5.71268 9.11294 6.06833 9.01765Z" fill="#94A3B8"/>
</svg>
