<svg width="25" height="24" viewBox="0 0 25 24" fill="none" xmlns="http://www.w3.org/2000/svg">
<path fill-rule="evenodd" clip-rule="evenodd" d="M14.3829 19.0029L14.3887 17C14.3887 16.4477 14.8375 16 15.3912 16C15.9448 16 16.3937 16.4477 16.3937 17V18.9765C16.3937 19.458 16.3937 19.6988 16.5481 19.8464C16.7025 19.9941 16.9387 19.984 17.4112 19.964C19.2741 19.8852 20.4187 19.6332 21.2254 18.8284C22.0341 18.0218 22.286 16.8766 22.3644 15.0105C22.38 14.6405 22.3878 14.4554 22.3187 14.332C22.2495 14.2085 21.9737 14.0545 21.4219 13.7463C20.8091 13.4041 20.3949 12.7503 20.3949 12C20.3949 11.2497 20.8091 10.5959 21.4219 10.2537C21.9737 9.94554 22.2495 9.79147 22.3187 9.66803C22.3878 9.54458 22.38 9.35954 22.3644 8.98947C22.286 7.12339 22.0341 5.97823 21.2254 5.17157C20.3477 4.29604 19.0702 4.0748 16.9028 4.0189C16.6232 4.01169 16.3937 4.23718 16.3937 4.51618V7C16.3937 7.55228 15.9448 8 15.3912 8C14.8375 8 14.3887 7.55228 14.3887 7L14.3814 4.49855C14.3806 4.22298 14.1564 4 13.8802 4H10.37C6.58939 4 4.69907 4 3.52458 5.17157C2.71591 5.97823 2.46403 7.12339 2.38558 8.98947C2.37002 9.35954 2.36224 9.54458 2.43134 9.66802C2.50045 9.79147 2.77633 9.94554 3.32808 10.2537C3.94086 10.5959 4.35507 11.2497 4.35507 12C4.35507 12.7503 3.94086 13.4041 3.32808 13.7463C2.77633 14.0545 2.50045 14.2085 2.43134 14.332C2.36224 14.4554 2.37002 14.6405 2.38558 15.0105C2.46403 16.8766 2.71591 18.0218 3.52458 18.8284C4.69907 20 6.58938 20 10.37 20H13.3804C13.8517 20 14.0874 20 14.2341 19.8541C14.3808 19.7081 14.3815 19.4731 14.3829 19.0029ZM16.3937 13V11C16.3937 10.4477 15.9448 10 15.3912 10C14.8375 10 14.3887 10.4477 14.3887 11V13C14.3887 13.5523 14.8375 14 15.3912 14C15.9448 14 16.3937 13.5523 16.3937 13Z" fill="#94A3B8"/>
</svg>
