<svg width="20" height="17" viewBox="0 0 20 17" fill="none" xmlns="http://www.w3.org/2000/svg">
<path fill-rule="evenodd" clip-rule="evenodd" d="M7.99502 0.5H12.005C15.7856 0.5 17.6759 0.5 18.8504 1.67157C19.6591 2.47823 19.911 3.62339 19.9894 5.48947C20.005 5.85954 20.0128 6.04458 19.9437 6.16803C19.8745 6.29147 19.5987 6.44554 19.0469 6.75366C18.4341 7.09586 18.0199 7.74968 18.0199 8.5C18.0199 9.25032 18.4341 9.90414 19.0469 10.2463C19.5987 10.5545 19.8745 10.7085 19.9437 10.832C20.0128 10.9554 20.005 11.1405 19.9894 11.5105C19.911 13.3766 19.6591 14.5218 18.8504 15.3284C17.6759 16.5 15.7856 16.5 12.005 16.5H7.99502C4.21438 16.5 2.32407 16.5 1.14958 15.3284C0.340911 14.5218 0.0890314 13.3766 0.0105773 11.5105C-0.00498125 11.1405 -0.0127605 10.9554 0.0563441 10.832C0.125448 10.7085 0.401333 10.5545 0.953082 10.2463C1.56586 9.90414 1.98007 9.25032 1.98007 8.5C1.98007 7.74968 1.56586 7.09586 0.953082 6.75366C0.401326 6.44554 0.125449 6.29147 0.0563441 6.16802C-0.0127605 6.04458 -0.00498124 5.85954 0.0105773 5.48947C0.0890314 3.62339 0.340911 2.47823 1.14958 1.67157C2.32407 0.5 4.21439 0.5 7.99502 0.5ZM13.5478 4.96967C13.8415 5.26256 13.8415 5.73744 13.5478 6.03033L7.53289 12.0303C7.23927 12.3232 6.76321 12.3232 6.46959 12.0303C6.17596 11.7374 6.17596 11.2626 6.46959 10.9697L12.4845 4.96967C12.7782 4.67678 13.2542 4.67678 13.5478 4.96967ZM12.5149 12C13.0686 12 13.5174 11.5523 13.5174 11C13.5174 10.4477 13.0686 10 12.5149 10C11.9613 10 11.5124 10.4477 11.5124 11C11.5124 11.5523 11.9613 12 12.5149 12ZM7.50248 7C8.05614 7 8.50497 6.55228 8.50497 6C8.50497 5.44772 8.05614 5 7.50248 5C6.94882 5 6.49999 5.44772 6.49999 6C6.49999 6.55228 6.94882 7 7.50248 7Z" fill="#94A3B8"/>
</svg>
