<svg width="25" height="24" viewBox="0 0 25 24" fill="none" xmlns="http://www.w3.org/2000/svg">
<path fill-rule="evenodd" clip-rule="evenodd" d="M14.7579 19.0029L14.7637 17C14.7637 16.4477 15.2125 16 15.7662 16C16.3198 16 16.7687 16.4477 16.7687 17V18.9765C16.7687 19.458 16.7687 19.6988 16.9231 19.8464C17.0775 19.9941 17.3137 19.984 17.7862 19.964C19.6491 19.8852 20.7937 19.6332 21.6004 18.8284C22.4091 18.0218 22.661 16.8766 22.7394 15.0105C22.755 14.6405 22.7628 14.4554 22.6937 14.332C22.6245 14.2085 22.3487 14.0545 21.7969 13.7463C21.1841 13.4041 20.7699 12.7503 20.7699 12C20.7699 11.2497 21.1841 10.5959 21.7969 10.2537C22.3487 9.94554 22.6245 9.79147 22.6937 9.66803C22.7628 9.54458 22.755 9.35954 22.7394 8.98947C22.661 7.12339 22.4091 5.97823 21.6004 5.17157C20.7227 4.29604 19.4452 4.0748 17.2778 4.0189C16.9982 4.01169 16.7687 4.23718 16.7687 4.51618V7C16.7687 7.55228 16.3198 8 15.7662 8C15.2125 8 14.7637 7.55228 14.7637 7L14.7564 4.49855C14.7556 4.22298 14.5314 4 14.2552 4H10.745C6.96439 4 5.07407 4 3.89958 5.17157C3.09091 5.97823 2.83903 7.12339 2.76058 8.98947C2.74502 9.35954 2.73724 9.54458 2.80634 9.66802C2.87545 9.79147 3.15133 9.94554 3.70308 10.2537C4.31586 10.5959 4.73007 11.2497 4.73007 12C4.73007 12.7503 4.31586 13.4041 3.70308 13.7463C3.15133 14.0545 2.87545 14.2085 2.80634 14.332C2.73724 14.4554 2.74502 14.6405 2.76058 15.0105C2.83903 16.8766 3.09091 18.0218 3.89958 18.8284C5.07407 20 6.96438 20 10.745 20H13.7554C14.2267 20 14.4624 20 14.6091 19.8541C14.7558 19.7081 14.7565 19.4731 14.7579 19.0029ZM16.7687 13V11C16.7687 10.4477 16.3198 10 15.7662 10C15.2125 10 14.7637 10.4477 14.7637 11V13C14.7637 13.5523 15.2125 14 15.7662 14C16.3198 14 16.7687 13.5523 16.7687 13Z" fill="white"/>
</svg>
