<svg width="16" height="16" viewBox="0 0 16 16" fill="none" xmlns="http://www.w3.org/2000/svg">
<path fill-rule="evenodd" clip-rule="evenodd" d="M6.66436 2.66663H9.33596C11.8548 2.66663 13.1142 2.66663 13.8967 3.44767C14.4824 4.03235 14.6297 4.88377 14.6667 6.32958C14.6715 6.51495 14.5194 6.66308 14.3397 6.71007C13.7663 6.86 13.3434 7.38068 13.3434 7.99996C13.3434 8.61924 13.7663 9.13991 14.3397 9.28985C14.5194 9.33684 14.6715 9.48497 14.6667 9.67033C14.6297 11.1161 14.4824 11.9676 13.8967 12.5522C13.1142 13.3333 11.8548 13.3333 9.33596 13.3333H6.66436C4.14556 13.3333 2.88615 13.3333 2.10366 12.5522C1.51791 11.9676 1.37063 11.1161 1.3336 9.67033C1.32886 9.48497 1.48097 9.33684 1.66067 9.28985C2.23399 9.13991 2.65697 8.61924 2.65697 7.99996C2.65697 7.38068 2.23399 6.86 1.66067 6.71007C1.48097 6.66308 1.32886 6.51495 1.3336 6.32958C1.37063 4.88377 1.51791 4.03235 2.10366 3.44767C2.88615 2.66663 4.14556 2.66663 6.66436 2.66663ZM8.63624 6.79921L8.57058 6.68163C8.31678 6.22718 8.18989 5.99996 8.00016 5.99996C7.81044 5.99996 7.68354 6.22718 7.42974 6.68163L7.36408 6.79921C7.29196 6.92835 7.2559 6.99292 7.19967 7.03552C7.14345 7.07812 7.07342 7.09394 6.93337 7.12557L6.80587 7.15436C6.31302 7.26567 6.0666 7.32132 6.00797 7.50951C5.94934 7.69769 6.11734 7.89377 6.45333 8.28594L6.54025 8.3874C6.63573 8.49885 6.68347 8.55457 6.70494 8.6235C6.72642 8.69244 6.7192 8.76678 6.70477 8.91547L6.69163 9.05084C6.64083 9.57408 6.61543 9.8357 6.76892 9.952C6.92241 10.0683 7.15313 9.96227 7.61459 9.75019L7.73397 9.69533C7.8651 9.63506 7.93066 9.60493 8.00016 9.60493C8.06966 9.60493 8.13523 9.63506 8.26636 9.69533L8.38574 9.75019C8.84719 9.96227 9.07792 10.0683 9.23141 9.952C9.38489 9.8357 9.3595 9.57408 9.3087 9.05084L9.29556 8.91547C9.28112 8.76678 9.2739 8.69244 9.29538 8.6235C9.31686 8.55457 9.3646 8.49885 9.46007 8.3874L9.547 8.28594C9.88299 7.89377 10.051 7.69769 9.99236 7.50951C9.93373 7.32132 9.68731 7.26567 9.19446 7.15436L9.06695 7.12557C8.9269 7.09394 8.85688 7.07812 8.80065 7.03552C8.74443 6.99292 8.70836 6.92835 8.63624 6.79921Z" fill="#003566"/>
</svg>
